<svg xmlns="http://www.w3.org/2000/svg" id="Layer_1" data-name="Layer 1" viewBox="0 0 24 24"><defs><style>.cls-1{fill:red}</style></defs><rect width="24" height="24" class="cls-1" rx="12"/><path d="M18.61 8.66a1.72 1.72 0 0 0-1.22-1.23A40.94 40.94 0 0 0 12 7.14a40.94 40.94 0 0 0-5.39.29 1.72 1.72 0 0 0-1.22 1.23A18 18 0 0 0 5.1 12a18 18 0 0 0 .29 3.34 1.72 1.72 0 0 0 1.22 1.23 40.94 40.94 0 0 0 5.39.29 40.94 40.94 0 0 0 5.39-.29 1.72 1.72 0 0 0 1.22-1.23A18 18 0 0 0 18.9 12a18 18 0 0 0-.29-3.34Z" style="fill:#fff"/><path d="M10.59 14.05 14.2 12l-3.61-2.05v4.1z" class="cls-1"/></svg>